####
#
# OBJ File Generated by Meshlab
#
####
# Object model.obj
#
# Vertices: 24
# Faces: 12
#
####
mtllib ./model.obj.mtl

vn 1.000000 0.000000 0.000000
v 0.032500 0.020000 0.065000
vn 1.000000 0.000000 0.000000
v 0.032500 -0.020000 0.065000
vn 1.000000 0.000000 0.000000
v 0.032500 0.020000 -0.065000
vn 1.000000 0.000000 0.000000
v 0.032500 -0.020000 -0.065000
vn -1.000000 0.000000 0.000000
v -0.032500 -0.020000 0.065000
vn -1.000000 0.000000 0.000000
v -0.032500 0.020000 0.065000
vn -1.000000 0.000000 0.000000
v -0.032500 -0.020000 -0.065000
vn -1.000000 0.000000 0.000000
v -0.032500 0.020000 -0.065000
vn 0.000000 1.000000 0.000000
v -0.032500 0.020000 0.065000
vn 0.000000 1.000000 0.000000
v 0.032500 0.020000 0.065000
vn 0.000000 1.000000 0.000000
v -0.032500 0.020000 -0.065000
vn 0.000000 1.000000 0.000000
v 0.032500 0.020000 -0.065000
vn 0.000000 -1.000000 0.000000
v 0.032500 -0.020000 0.065000
vn 0.000000 -1.000000 0.000000
v -0.032500 -0.020000 0.065000
vn 0.000000 -1.000000 0.000000
v 0.032500 -0.020000 -0.065000
vn 0.000000 -1.000000 0.000000
v -0.032500 -0.020000 -0.065000
vn 0.000000 0.000000 1.000000
v -0.032500 -0.020000 0.065000
vn 0.000000 0.000000 1.000000
v 0.032500 -0.020000 0.065000
vn 0.000000 0.000000 1.000000
v -0.032500 0.020000 0.065000
vn 0.000000 0.000000 1.000000
v 0.032500 0.020000 0.065000
vn 0.000000 0.000000 -1.000000
v -0.032500 0.020000 -0.065000
vn 0.000000 0.000000 -1.000000
v 0.032500 0.020000 -0.065000
vn 0.000000 0.000000 -1.000000
v -0.032500 -0.020000 -0.065000
vn 0.000000 0.000000 -1.000000
v 0.032500 -0.020000 -0.065000
# 24 vertices, 0 vertices normals


usemtl material_0
vt 0.000000 0.000000
vt 0.117647 0.000000
vt 0.000000 1.000000
f 1/1/1 2/2/2 3/3/3
vt 0.117647 1.000000
f 2/2/2 4/4/4 3/3/3
vt 0.235294 0.000000
f 5/2/5 6/5/6 7/4/7
vt 0.235294 1.000000
f 6/5/6 8/6/8 7/4/7
vt 0.426471 0.000000
f 9/5/9 10/7/10 11/6/11
vt 0.426471 1.000000
f 10/7/10 12/8/12 11/6/11
vt 0.617647 0.000000
f 13/7/13 14/9/14 15/8/15
vt 0.617647 1.000000
f 14/9/14 16/10/16 15/8/15
vt 0.808824 0.000000
vt 0.617647 0.307692
f 17/9/17 18/11/18 19/12/19
vt 0.808824 0.307692
f 18/11/18 20/13/20 19/12/19
vt 1.000000 0.000000
f 21/11/21 22/14/22 23/13/23
vt 1.000000 0.307692
f 22/14/22 24/15/24 23/13/23
# 12 faces, 15 coords texture

# End of File