ply
format ascii 1.0
comment VCGLIB generated
comment TextureFile texture_map.jpg
element vertex 24
property float x
property float y
property float z
property float nx
property float ny
property float nz
element face 12
property list uchar int vertex_indices
property list uchar float texcoord
end_header
0.0325 0.02 0.065 1 0 0
0.0325 -0.02 0.065 1 0 0
0.0325 0.02 -0.065 1 0 0
0.0325 -0.02 -0.065 1 0 0
-0.0325 -0.02 0.065 -1 0 0
-0.0325 0.02 0.065 -1 0 0
-0.0325 -0.02 -0.065 -1 0 0
-0.0325 0.02 -0.065 -1 0 0
-0.0325 0.02 0.065 0 1 0
0.0325 0.02 0.065 0 1 0
-0.0325 0.02 -0.065 0 1 0
0.0325 0.02 -0.065 0 1 0
0.0325 -0.02 0.065 0 -1 0
-0.0325 -0.02 0.065 0 -1 0
0.0325 -0.02 -0.065 0 -1 0
-0.0325 -0.02 -0.065 0 -1 0
-0.0325 -0.02 0.065 0 0 1
0.0325 -0.02 0.065 0 0 1
-0.0325 0.02 0.065 0 0 1
0.0325 0.02 0.065 0 0 1
-0.0325 0.02 -0.065 0 0 -1
0.0325 0.02 -0.065 0 0 -1
-0.0325 -0.02 -0.065 0 0 -1
0.0325 -0.02 -0.065 0 0 -1
3 0 1 2 6 0.0 0.0 0.11764705882352941 0.0 0.0 1.0
3 1 3 2 6 0.11764705882352941 0.0 0.11764705882352941 1.0 0.0 1.0
3 4 5 6 6 0.11764705882352941 0.0 0.23529411764705882 0.0 0.11764705882352941 1.0
3 5 7 6 6 0.23529411764705882 0.0 0.23529411764705882 1.0 0.11764705882352941 1.0
3 8 9 10 6 0.23529411764705882 0.0 0.4264705882352941 0.0 0.23529411764705882 1.0
3 9 11 10 6 0.4264705882352941 0.0 0.4264705882352941 1.0 0.23529411764705882 1.0
3 12 13 14 6 0.4264705882352941 0.0 0.6176470588235294 0.0 0.4264705882352941 1.0
3 13 15 14 6 0.6176470588235294 0.0 0.6176470588235294 1.0 0.4264705882352941 1.0
3 16 17 18 6 0.6176470588235294 0.0 0.8088235294117647 0.0 0.6176470588235294 0.3076923076923077
3 17 19 18 6 0.8088235294117647 0.0 0.8088235294117647 0.3076923076923077 0.6176470588235294 0.3076923076923077
3 20 21 22 6 0.8088235294117647 0.0 1.0 0.0 0.8088235294117647 0.3076923076923077
3 21 23 22 6 1.0 0.0 1.0 0.3076923076923077 0.8088235294117647 0.3076923076923077
