ply
format ascii 1.0
comment Created by Open Asset Import Library - http://assimp.sf.net (v5.0.1588609223)
comment TextureFile texture_map.png
element vertex 6
property float x
property float y
property float z
property float nx
property float ny
property float nz
property float texture_u
property float texture_v
element face 2
property list uchar int vertex_indices
end_header
-1 1 0 0 0 -1.570796 0.5 0.5
1 1 0 0 0 -1.570796 0.5 0.5
-1 -1 0 0 0 -1.570796 0.5 0.5
1 1 0 0 0 -1.570796 0.5 0.5
1 -1 0 0 0 -1.570796 0.5 0.5
-1 -1 0 0 0 -1.570796 0.5 0.5
3 0 1 2
3 3 4 5
