ply
format ascii 1.0
comment VCGLIB generated
comment TextureFile texture_map.jpg
element vertex 24
property float x
property float y
property float z
property float nx
property float ny
property float nz
element face 12
property list uchar int vertex_indices
property list uchar float texcoord
end_header
0.0325 0.03 0.035 1 0 0
0.0325 -0.03 0.035 1 0 0
0.0325 0.03 -0.035 1 0 0
0.0325 -0.03 -0.035 1 0 0
-0.0325 -0.03 0.035 -1 0 0
-0.0325 0.03 0.035 -1 0 0
-0.0325 -0.03 -0.035 -1 0 0
-0.0325 0.03 -0.035 -1 0 0
-0.0325 0.03 0.035 0 1 0
0.0325 0.03 0.035 0 1 0
-0.0325 0.03 -0.035 0 1 0
0.0325 0.03 -0.035 0 1 0
0.0325 -0.03 0.035 0 -1 0
-0.0325 -0.03 0.035 0 -1 0
0.0325 -0.03 -0.035 0 -1 0
-0.0325 -0.03 -0.035 0 -1 0
-0.0325 -0.03 0.035 0 0 1
0.0325 -0.03 0.035 0 0 1
-0.0325 0.03 0.035 0 0 1
0.0325 0.03 0.035 0 0 1
-0.0325 0.03 -0.035 0 0 -1
0.0325 0.03 -0.035 0 0 -1
-0.0325 -0.03 -0.035 0 0 -1
0.0325 -0.03 -0.035 0 0 -1
3 0 1 2 6 0.0 0.0 0.15789473684210525 0.0 0.0 1.0
3 1 3 2 6 0.15789473684210525 0.0 0.15789473684210525 1.0 0.0 1.0
3 4 5 6 6 0.15789473684210525 0.0 0.3157894736842105 0.0 0.15789473684210525 1.0
3 5 7 6 6 0.3157894736842105 0.0 0.3157894736842105 1.0 0.15789473684210525 1.0
3 8 9 10 6 0.3157894736842105 0.0 0.4868421052631579 0.0 0.3157894736842105 1.0
3 9 11 10 6 0.4868421052631579 0.0 0.4868421052631579 1.0 0.3157894736842105 1.0
3 12 13 14 6 0.4868421052631579 0.0 0.6578947368421053 0.0 0.4868421052631579 1.0
3 13 15 14 6 0.6578947368421053 0.0 0.6578947368421053 1.0 0.4868421052631579 1.0
3 16 17 18 6 0.6578947368421053 0.0 0.8289473684210527 0.0 0.6578947368421053 0.8571428571428571
3 17 19 18 6 0.8289473684210527 0.0 0.8289473684210527 0.8571428571428571 0.6578947368421053 0.8571428571428571
3 20 21 22 6 0.8289473684210527 0.0 1.0 0.0 0.8289473684210527 0.8571428571428571
3 21 23 22 6 1.0 0.0 1.0 0.8571428571428571 0.8289473684210527 0.8571428571428571
